<svg width="127" height="39" viewBox="0 0 127 39" fill="none" xmlns="http://www.w3.org/2000/svg">
	<path d="M0.86028 22.9317C0.653377 22.6563 0.549927 22.312 0.549927 21.8989C0.549927 21.3022 0.848785 20.7973 1.4465 20.3844C1.76835 20.1778 2.10169 20.0745 2.44653 20.0745C2.9293 20.0745 3.38909 20.2926 3.82587 20.7285C4.51555 21.4399 5.22821 21.9678 5.96387 22.312C6.7225 22.6563 7.63056 22.8283 8.68806 22.8283C10.4812 22.7595 11.3778 22.0825 11.3778 20.7973C11.3778 20.1319 11.0674 19.627 10.4467 19.2828C9.84903 18.9385 8.90647 18.5943 7.61907 18.25C6.28571 17.8828 5.19373 17.5158 4.34313 17.1486C3.51552 16.7814 2.79136 16.2306 2.17065 15.4962C1.57294 14.7389 1.27408 13.7292 1.27408 12.467C1.27408 11.3654 1.58443 10.4131 2.20514 9.60986C2.84883 8.78371 3.67644 8.15263 4.68796 7.71659C5.72247 7.25762 6.81446 7.02814 7.96392 7.02814C9.13636 7.02814 10.3088 7.24615 11.4813 7.68218C12.6537 8.1182 13.5732 8.76076 14.2399 9.60986C14.5388 9.97705 14.6882 10.3901 14.6882 10.8491C14.6882 11.3769 14.4698 11.8129 14.033 12.1572C13.7112 12.4096 13.3434 12.5358 12.9296 12.5358C12.4238 12.5358 12.01 12.3752 11.6881 12.0539C11.2743 11.549 10.7341 11.1474 10.0674 10.8491C9.42371 10.5508 8.68806 10.4016 7.86047 10.4016C6.11328 10.4016 5.23971 11.0327 5.23971 12.2949C5.23971 12.7997 5.40063 13.2128 5.72247 13.5341C6.04432 13.8324 6.44663 14.0734 6.9294 14.257C7.43517 14.4176 8.13633 14.6242 9.0329 14.8766C10.2743 15.2208 11.3088 15.5766 12.1364 15.9438C12.964 16.311 13.6652 16.8732 14.2399 17.6305C14.8147 18.3877 15.102 19.386 15.102 20.6253C15.102 21.7498 14.7687 22.7365 14.102 23.5857C13.4353 24.4119 12.5732 25.0429 11.5157 25.479C10.4812 25.9149 9.41222 26.133 8.30874 26.133C6.79146 26.133 5.37763 25.8805 4.06725 25.3756C2.75689 24.8707 1.68788 24.0561 0.86028 22.9317Z" fill="#1A53C6"></path>
	<path d="M34.4551 7.02814C35.053 7.02814 35.5472 7.2232 35.938 7.61333C36.3288 8.00345 36.5242 8.50832 36.5242 9.12794V23.6889C36.5242 24.2856 36.3288 24.7905 35.938 25.2036C35.5472 25.5937 35.053 25.7887 34.4551 25.7887C33.8575 25.7887 33.3633 25.5937 32.9725 25.2036C32.6046 24.8134 32.4092 24.3201 32.3861 23.7234C31.8114 24.3889 31.0298 24.9625 30.0412 25.4445C29.0757 25.9035 28.0527 26.133 26.9722 26.133C25.386 26.133 23.9492 25.7314 22.6617 24.9282C21.3745 24.102 20.3514 22.966 19.5928 21.5203C18.8571 20.0745 18.4893 18.4336 18.4893 16.5978C18.4893 14.7619 18.8571 13.121 19.5928 11.6753C20.3283 10.2065 21.3284 9.07057 22.5927 8.26736C23.8802 7.44121 25.294 7.02814 26.8342 7.02814C27.9378 7.02814 28.9723 7.23467 29.9378 7.64776C30.9034 8.03788 31.7194 8.54275 32.3861 9.16237V9.12794C32.3861 8.53127 32.5815 8.03788 32.9725 7.64776C33.3633 7.23467 33.8575 7.02814 34.4551 7.02814ZM27.4894 22.3464C28.9837 22.3464 30.2022 21.8071 31.1447 20.7285C32.0873 19.627 32.5586 18.25 32.5586 16.5978C32.5586 14.9454 32.0873 13.5685 31.1447 12.467C30.2022 11.3654 28.9837 10.8147 27.4894 10.8147C26.0182 10.8147 24.8113 11.3654 23.8687 12.467C22.9261 13.5685 22.4549 14.9454 22.4549 16.5978C22.4549 18.25 22.9147 19.627 23.8343 20.7285C24.7768 21.8071 25.9953 22.3464 27.4894 22.3464Z" fill="#1A53C6"></path>
	<path d="M46.1813 23.6889C46.1813 24.2856 45.9744 24.7905 45.5607 25.2036C45.1697 25.5938 44.6755 25.7887 44.0778 25.7887C43.5031 25.7887 43.0203 25.5938 42.6294 25.2036C42.2386 24.7905 42.0432 24.2856 42.0432 23.6889V2.41548C42.0432 1.81881 42.2386 1.32542 42.6294 0.935288C43.0433 0.522212 43.549 0.315674 44.1468 0.315674C44.7215 0.315674 45.2043 0.522212 45.5951 0.935288C45.9859 1.32542 46.1813 1.81881 46.1813 2.41548V23.6889Z" fill="#1A53C6"></path>
	<path d="M67.8984 16.1503C67.8753 16.701 67.6569 17.1486 67.2432 17.4928C66.8293 17.8369 66.3465 18.0091 65.7948 18.0091H54.4153C54.6912 19.363 55.3233 20.4303 56.3119 21.2104C57.3003 21.9678 58.4153 22.3464 59.6567 22.3464C60.5993 22.3464 61.3349 22.2661 61.8638 22.1055C62.3924 21.9219 62.8063 21.7383 63.1051 21.5547C63.4269 21.3481 63.6454 21.2104 63.7603 21.1416C64.1741 20.935 64.5649 20.8318 64.9327 20.8318C65.4155 20.8318 65.8294 21.0039 66.1741 21.3481C66.519 21.6924 66.6914 22.0939 66.6914 22.5529C66.6914 23.1726 66.3695 23.7348 65.7259 24.2397C65.0822 24.7675 64.2201 25.215 63.1396 25.5822C62.0592 25.9494 60.9671 26.133 59.8636 26.133C57.9326 26.133 56.2429 25.7314 54.7946 24.9282C53.3693 24.1249 52.2658 23.0235 51.4842 21.6235C50.7024 20.2008 50.3116 18.6058 50.3116 16.8387C50.3116 14.8651 50.7255 13.1325 51.553 11.6408C52.3807 10.1492 53.4727 9.01321 54.829 8.23294C56.1853 7.42973 57.6337 7.02814 59.174 7.02814C60.6912 7.02814 62.1165 7.44121 63.45 8.26736C64.8063 9.09352 65.8868 10.2065 66.6914 11.6064C67.496 13.0063 67.8984 14.5209 67.8984 16.1503ZM59.174 10.8147C56.5073 10.8147 54.9325 12.0654 54.4497 14.5668H63.4845V14.3258C63.3925 13.362 62.9212 12.5358 62.0706 11.8474C61.22 11.1589 60.2545 10.8147 59.174 10.8147Z" fill="#1A53C6"></path>
	<path d="M81.5909 7.02818C83.1771 7.02818 84.6139 7.44125 85.9014 8.2674C87.1888 9.07061 88.2002 10.1951 88.9359 11.6409C89.6945 13.0866 90.0739 14.7275 90.0739 16.5633C90.0739 18.3993 89.706 20.0515 88.9705 21.5203C88.2348 22.966 87.2232 24.102 85.9359 24.9282C84.6715 25.7314 83.2691 26.133 81.7289 26.133C80.6254 26.133 79.5794 25.9149 78.5909 25.479C77.6253 25.02 76.8207 24.4692 76.177 23.8266V24.0331C76.177 24.6299 75.9816 25.1348 75.5908 25.5479C75.2 25.9379 74.7056 26.133 74.108 26.133C73.5103 26.133 73.0161 25.9379 72.6251 25.5479C72.2343 25.1577 72.0389 24.6528 72.0389 24.0331V2.41548C72.0389 1.81881 72.2343 1.32542 72.6251 0.935288C73.0161 0.522212 73.5103 0.315674 74.108 0.315674C74.7056 0.315674 75.2 0.522212 75.5908 0.935288C75.9816 1.32542 76.177 1.81881 76.177 2.41548V9.6099C76.7288 8.92144 77.4989 8.32478 78.4873 7.81991C79.4759 7.29209 80.5105 7.02818 81.5909 7.02818ZM81.0737 22.3464C82.545 22.3464 83.7519 21.7956 84.6944 20.6941C85.637 19.5926 86.1082 18.2157 86.1082 16.5633C86.1082 14.9111 85.637 13.5456 84.6944 12.467C83.775 11.3655 82.568 10.8147 81.0737 10.8147C79.5794 10.8147 78.3609 11.3655 77.4184 12.467C76.4758 13.5456 76.0045 14.9111 76.0045 16.5633C76.0045 18.2157 76.4758 19.5926 77.4184 20.6941C78.3609 21.7956 79.5794 22.3464 81.0737 22.3464Z" fill="#1A53C6"></path>
	<path d="M111.938 16.5978C111.938 18.4336 111.524 20.086 110.697 21.5547C109.869 23.0005 108.731 24.1249 107.283 24.9282C105.857 25.7314 104.283 26.133 102.558 26.133C100.811 26.133 99.2251 25.7314 97.7998 24.9282C96.3745 24.1249 95.248 23.0005 94.4203 21.5547C93.5927 20.086 93.179 18.4336 93.179 16.5978C93.179 14.7619 93.5927 13.121 94.4203 11.6753C95.248 10.2065 96.3745 9.07057 97.7998 8.26736C99.2251 7.44121 100.811 7.02814 102.558 7.02814C104.283 7.02814 105.857 7.44121 107.283 8.26736C108.731 9.07057 109.869 10.2065 110.697 11.6753C111.524 13.121 111.938 14.7619 111.938 16.5978ZM107.8 16.5978C107.8 15.4732 107.559 14.475 107.076 13.6029C106.616 12.7079 105.984 12.0195 105.179 11.5376C104.398 11.0556 103.524 10.8147 102.558 10.8147C101.593 10.8147 100.708 11.0556 99.9032 11.5376C99.1216 12.0195 98.4894 12.7079 98.0066 13.6029C97.5468 14.475 97.317 15.4732 97.317 16.5978C97.317 17.7223 97.5468 18.7206 98.0066 19.5925C98.4894 20.4646 99.1216 21.1416 99.9032 21.6235C100.708 22.1055 101.593 22.3464 102.558 22.3464C103.524 22.3464 104.398 22.1055 105.179 21.6235C105.984 21.1416 106.616 20.4646 107.076 19.5925C107.559 18.7206 107.8 17.7223 107.8 16.5978Z" fill="#1A53C6"></path>
	<path d="M124.982 21.8989C125.304 21.8989 125.591 22.0596 125.844 22.3809C126.12 22.6792 126.258 23.0808 126.258 23.5857C126.258 24.2053 125.913 24.733 125.223 25.1691C124.557 25.5822 123.798 25.7887 122.947 25.7887C121.522 25.7887 120.315 25.4904 119.327 24.8937C118.361 24.2742 117.878 22.9776 117.878 21.0039V11.5032H116.292C115.74 11.5032 115.28 11.3196 114.913 10.9524C114.545 10.5852 114.361 10.1262 114.361 9.57546C114.361 9.04764 114.545 8.61162 114.913 8.26738C115.28 7.90021 115.74 7.71661 116.292 7.71661H117.878V5.51353C117.878 4.91688 118.074 4.42348 118.464 4.03335C118.878 3.62028 119.384 3.41373 119.982 3.41373C120.556 3.41373 121.039 3.62028 121.43 4.03335C121.821 4.42348 122.016 4.91688 122.016 5.51353V7.71661H124.465C125.016 7.71661 125.476 7.90021 125.844 8.26738C126.212 8.63457 126.396 9.09354 126.396 9.64431C126.396 10.1721 126.212 10.6196 125.844 10.9868C125.476 11.331 125.016 11.5032 124.465 11.5032H122.016V20.8318C122.016 21.3138 122.143 21.6694 122.396 21.8989C122.648 22.1055 122.993 22.2087 123.43 22.2087C123.614 22.2087 123.867 22.1628 124.189 22.071C124.465 21.9562 124.729 21.8989 124.982 21.8989Z" fill="#1A53C6"></path>
	<path d="M112.019 31.2526C113.922 31.2526 115.465 32.7929 115.465 34.6929C115.465 36.5929 113.922 38.1332 112.019 38.1332C110.115 38.1332 108.572 36.5929 108.572 34.6929C108.572 32.7929 110.115 31.2526 112.019 31.2526Z" fill="#FDB954"></path>
	<path d="M102.386 31.2526C104.29 31.2526 105.833 32.7929 105.833 34.6929C105.833 36.5929 104.29 38.1332 102.386 38.1332C100.483 38.1332 98.9401 36.5929 98.9401 34.6929C98.9401 32.7929 100.483 31.2526 102.386 31.2526Z" fill="#FDC571"></path>
	<path d="M92.2239 31.2526C94.1273 31.2526 95.6703 32.7929 95.6703 34.6929C95.6703 36.5929 94.1273 38.1332 92.2239 38.1332C90.3206 38.1332 88.7776 36.5929 88.7776 34.6929C88.7776 32.7929 90.3206 31.2526 92.2239 31.2526Z" fill="#FED08C"></path>
</svg>
